# Made in Blockbench 4.12.4
mtllib Shack.mtl

o beveled_cuboid
v 0.25 1.4375 0.1875
v 0.25 1.4375 -0.1875
v -0.25 1.4375 0.1875
v -0.25 1.4375 -0.1875
v 0.4375 0 0.4375
v 0.4375 0 -0.4375
v -0.4375 0 0.4375
v -0.4375 0 -0.4375
v -0.5 0.0625 0.4375
v -0.5 0.9375 0.4375
v -0.5 0.0625 -0.4375
v -0.5 0.9375 -0.4375
v 0.5 0.0625 0.4375
v 0.5 0.9375 0.4375
v 0.5 0.0625 -0.4375
v 0.5 0.9375 -0.4375
v 0.4375 0.0625 -0.5
v 0.4375 0.9375 -0.5
v -0.4375 0.0625 -0.5
v -0.4375 0.9375 -0.5
v 0.4375 0.0625 0.5
v 0.4375 0.9375 0.5
v -0.4375 0.0625 0.5
v -0.4375 0.9375 0.5
v 0.5 0.698534375 0.4375
v 0.5 0.71875 -0.4375
v 0.5 0.8125 0.4375
v 0.5 0.8125 -0.4375
v 1.3125 0.625 0.4375
v 1.3125 0.5 0.4375
v 1.3125 0.5 -0.4375
v 1.3125 0.625 -0.4375
vt 0.21875 0.546875
vt 0.21875 0.765625
vt 0 0.765625
vt 0 0.546875
vt 0.453125 0.78125
vt 0.453125 1
vt 0.234375 1
vt 0.234375 0.78125
vt 0.234375 0.546875
vt 0.453125 0.546875
vt 0.453125 0.765625
vt 0.234375 0.765625
vt 0.21875 0.3125
vt 0.21875 0.53125
vt 0 0.53125
vt 0 0.3125
vt 0.6875 1
vt 0.46875 1
vt 0.46875 0.78125
vt 0.6875 0.78125
vt 0.6875 0.625
vt 0.46875 0.625
vt 0.46875 0.609375
vt 0.6875 0.609375
vt 0.6875 0.578125
vt 0.6875 0.59375
vt 0.46875 0.59375
vt 0.46875 0.578125
vt 0.4765625 0.5091515625
vt 0.4765625 0.53125
vt 0.2578125 0.53125
vt 0.2578125 0.5091515625
vt 0.7109375 0.765625
vt 0.4921875 0.765625
vt 0.4921875 0.7435265625
vt 0.7109375 0.7435265625
vt 0.46875 0.5625
vt 0.46875 0.546875
vt 0.6875 0.546875
vt 0.6875 0.5625
vt 0.234375 0.46875
vt 0.453125 0.46875
vt 0.453125 0.484375
vt 0.234375 0.484375
vt 0.4921875 0.6875
vt 0.7109375 0.6875
vt 0.7109375 0.7095984375
vt 0.4921875 0.7095984375
vt 0.4921875 0.6627234375
vt 0.4921875 0.640625
vt 0.7109375 0.640625
vt 0.7109375 0.6627234375
vt 0.234375 0.453125
vt 0.234375 0.234375
vt 0.25 0.234375
vt 0.25 0.453125
vt 0.265625 0.234375
vt 0.28125 0.234375
vt 0.28125 0.453125
vt 0.265625 0.453125
vt 0.7109375 0.6875
vt 0.73007375 0.6985478125
vt 0.7109375 0.70959640625
vt 0.4921875 0.6875
vt 0.4921875 0.70959640625
vt 0.47305125 0.6985478125
vt 0.4921875 0.640625
vt 0.4921875 0.66272140625
vt 0.47305125 0.6516728125
vt 0.7109375 0.640625
vt 0.73007375 0.6516728125
vt 0.7109375 0.66272140625
vt 0.4765625 0.53125
vt 0.4765625 0.5091521875
vt 0.49569921875 0.52020015625
vt 0.2578125 0.53125
vt 0.23867578125 0.52020015625
vt 0.2578125 0.5091521875
vt 0.4921875 0.765625
vt 0.47305078125 0.75457515625
vt 0.4921875 0.7435271875
vt 0.7109375 0.765625
vt 0.7109375 0.7435271875
vt 0.73007421875 0.75457515625
vt 0.46875 0.4296875
vt 0.46875 0.265625
vt 0.484375 0.265625
vt 0.484375 0.484375
vt 0.484375 0.484375
vt 0.46875 0.484375
vt 0.46875 0.4296875
vt 0.53125 0.47150859375
vt 0.515625 0.53125
vt 0.515625 0.3125
vt 0.53125 0.3125
vt 0.53125 0.47150859375
vt 0.53125 0.53125
vt 0.515625 0.53125
vt 0.21875 0.78125
vt 0.21875 0.890625
vt 0 0.890625
vt 0 0.78125
vt 0 1
vt 0 0.890625
vt 0.21875 0.890625
vt 0.21875 1
vt 0.015625 0.953125
vt 0.015625 0.984375
vt 0 0.984375
vt 0 0.953125
vt 0.0625 0.78125
vt 0.0625 1
vt 0.046875 1
vt 0.046875 0.78125
vt 0.109375 0.984375
vt 0.109375 0.953125
vt 0.125 0.953125
vt 0.125 0.984375
vt 0.0625 0.78125
vt 0.0625 1
vt 0.046875 1
vt 0.046875 0.78125
vn -1 0 0
vn 0 1 0
vn 0 -1 0
vn 0 0 1
vn 0 0 -1
vn 0.8944271909999161 0.44721359549995804 0
vn -0.8944271909999161 0.44721359549995804 0
vn 0 0.52999894000318 0.847998304005088
vn 0 0.52999894000318 -0.847998304005088
vn 0.7071067811865476 -0.7071067811865476 0
vn -0.7071067811865476 -0.7071067811865476 0
vn 0 -0.7071067811865476 0.7071067811865476
vn 0 -0.7071067811865476 -0.7071067811865476
vn -0.7071067811865476 0 -0.7071067811865476
vn -0.7071067811865476 0 0.7071067811865476
vn 0.5773502691896258 -0.5773502691896258 0.5773502691896258
vn -0.5773502691896258 -0.5773502691896258 0.5773502691896258
vn 0.5773502691896258 -0.5773502691896258 -0.5773502691896258
vn -0.5773502691896258 -0.5773502691896258 -0.5773502691896258
vn 0.5773502691896258 0.5773502691896258 0.5773502691896258
vn -0.5773502691896258 0.5773502691896258 0.5773502691896258
vn 0.5773502691896258 0.5773502691896258 -0.5773502691896258
vn -0.5773502691896258 0.5773502691896258 -0.5773502691896258
vn 0.7071067811865476 0 -0.7071067811865476
vn 0.7071067811865476 0 -0.7071067811865476
vn 0.7071067811865476 0 0.7071067811865476
vn 0.7071067811865476 0 0.7071067811865476
vn 1 0 0
vn 1 0 0
vn 0 0 1
vn -0.3589790793088691 -0.9333456062030597 0
vn 0 0 -1
vn 0.3589790793088691 0.9333456062030597 0
usemtl m_ee512dfa-d7ee-8f38-6e8a-04cf7726aa21
f 9/1/1 10/2/1 12/3/1 11/4/1
f 1/5/2 2/6/2 4/7/2 3/8/2
f 8/9/3 6/10/3 5/11/3 7/12/3
f 21/13/4 22/14/4 24/15/4 23/16/4
f 20/17/5 18/18/5 17/19/5 19/20/5
f 2/21/6 1/22/6 14/23/6 16/24/6
f 10/25/7 3/26/7 4/27/7 12/28/7
f 22/29/8 1/30/8 3/31/8 24/32/8
f 4/33/9 2/34/9 18/35/9 20/36/9
f 13/37/10 5/38/10 6/39/10 15/40/10
f 8/41/11 7/42/11 9/43/11 11/44/11
f 7/45/12 5/46/12 21/47/12 23/48/12
f 17/49/13 6/50/13 8/51/13 19/52/13
f 20/53/14 19/54/14 11/55/14 12/56/14
f 9/57/15 23/58/15 24/59/15 10/60/15
f 5/61/16 13/62/16 21/63/16
f 7/64/17 23/65/17 9/66/17
f 6/67/18 17/68/18 15/69/18
f 8/70/19 11/71/19 19/72/19
f 1/73/20 22/74/20 14/75/20
f 3/76/21 10/77/21 24/78/21
f 2/79/22 16/80/22 18/81/22
f 4/82/23 20/83/23 12/84/23
f 26/85/24 15/86/24 17/87/24 18/88/24
f 18/89/25 16/90/25 26/91/25
f 25/92/26 22/93/26 21/94/26 13/95/26
f 25/96/27 14/97/27 22/98/27
f 15/99/28 28/100/28 27/101/28 13/102/28
f 29/103/29 30/104/29 31/105/29 32/106/29
f 30/107/30 29/108/30 14/109/30 27/110/30
f 31/111/31 30/112/31 27/113/31 28/114/31
f 32/115/32 31/116/32 28/117/32 16/118/32
f 29/119/33 32/120/33 16/121/33 14/122/33
o cuboid
v 1.3077425 0.5385825 0.4375
v 1.3077425 0.5385825 0.3125
v 1.3125 0 0.4375
v 1.3125 0 0.3125
v 1.1922575 0.5864175 0.4375
v 1.1922575 0.5864175 0.3125
v 1.1875 0 0.4375
v 1.1875 0 0.3125
vt 0.6875 1
vt 0.5625 1
vt 0.5625 0.4375
vt 0.6875 0.4375
vt 0.5 0.4375
vt 0.5 1
vt 0.375 1
vt 0.375 0.4375
vt 0.375 0.375
vt 0.375 0.25
vt 0.5 0.25
vt 0.5 0.375
vt 0.3125 0.25
vt 0.3125 0.375
vt 0.1875 0.375
vt 0.1875 0.25
vt 0.125 0.41254250000000003
vt 0.125 0.951144375
vt 0.009934375 1
vt 0 0.41364625
vt 0.30774375 1
vt 0.19225625 0.9521625
vt 0.1875 0.4375
vt 0.3125 0.4375
vn 0.9999609880456052 0.008833028181619226 0
vn -0.9999670926950065 0.008112553672931764 0
vn 0.38268033737113444 0.923880814493685 0
vn 0 -1 0
vn 0 0 1
vn 0 0 -1
usemtl m_e10d80d3-417b-4af2-a3e3-6d009541e4e6
f 34/123/34 33/124/34 35/125/34 36/126/34
f 39/127/35 37/128/35 38/129/35 40/130/35
f 37/131/36 33/132/36 34/133/36 38/134/36
f 36/135/37 35/136/37 39/137/37 40/138/37
f 35/139/38 33/140/38 37/141/38 39/142/38
f 38/143/39 34/144/39 36/145/39 40/146/39
o cuboid
v 1.3077425 0.5385825 -0.3125
v 1.3077425 0.5385825 -0.4375
v 1.3125 0 -0.3125
v 1.3125 0 -0.4375
v 1.1922575 0.5864175 -0.3125
v 1.1922575 0.5864175 -0.4375
v 1.1875 0 -0.3125
v 1.1875 0 -0.4375
vt 1 1
vt 0 1
vt 0 0.5
vt 1 0.5
vt 1 0.5
vt 1 1
vt 0 1
vt 0 0.5
vt 0 0
vt 1 0
vt 1 1
vt 0 1
vt 1 0
vt 1 1
vt 0 1
vt 0 0
vt 1 0.5
vt 1 1
vt 0 1
vt 0 0.5
vt 1 1
vt 0 1
vt 0 0.5
vt 1 0.5
vn 0.9999609880456052 0.008833028181619226 0
vn -0.9999670926950065 0.008112553672931764 0
vn 0.38268033737113444 0.923880814493685 0
vn 0 -1 0
vn 0 0 1
vn 0 0 -1
usemtl m_e10d80d3-417b-4af2-a3e3-6d009541e4e6
f 42/147/40 41/148/40 43/149/40 44/150/40
f 47/151/41 45/152/41 46/153/41 48/154/41
f 45/155/42 41/156/42 42/157/42 46/158/42
f 44/159/43 43/160/43 47/161/43 48/162/43
f 43/163/44 41/164/44 45/165/44 47/166/44
f 46/167/45 42/168/45 44/169/45 48/170/45