# Made in Blockbench 4.12.4
mtllib Fisherman's Tent.mtl

o pyramid
v 0 1 0
v 0.5 0 0.5
v 0.5 0 -0.5
v -0.5 0 0.5
v -0.5 0 -0.5
vt 0.6875 0.75
vt 0.6875 1
vt 0.4375 1
vt 0.4375 0.75
vt 0.40625 0.36111718750000044
vt 0.65625 0.36111718750000044
vt 0.53125 0.6406250000000004
vt 0.03125 0.7204921875
vt 0.28125 0.7204921875
vt 0.15625 1
vt 0.21875 0.5486171875000004
vt 0.46875 0.5486171875000004
vt 0.34375 0.8281250000000004
vt 0.03125 0.29861718750000044
vt 0.28125 0.29861718750000044
vt 0.15625 0.5781250000000004
vn 0 -1 0
vn 0.8944271909999161 0.44721359549995804 0
vn 0 0.44721359549995804 0.8944271909999161
vn 0 0.44721359549995804 -0.8944271909999161
vn -0.8944271909999161 0.44721359549995804 0
usemtl m_c304bb21-9f99-84be-7439-0d7c6a9717e3
f 3/1/1 2/2/1 4/3/1 5/4/1
f 2/5/2 3/6/2 1/7/2
f 4/8/3 2/9/3 1/10/3
f 3/11/4 5/12/4 1/13/4
f 5/14/5 4/15/5 1/16/5